<svg xmlns="http://www.w3.org/2000/svg" version="1.1" xmlns:xlink="http://www.w3.org/1999/xlink" xmlns:svgjs="http://svgjs.dev/svgjs" width="1920" height="1080" preserveAspectRatio="none" viewBox="0 0 1920 1080"><g mask="url(&quot;#SvgjsMask1052&quot;)" fill="none"><path d="M300.42 1098.66C455.28 1094.83 588.62 875.62 878.49 875.56 1168.36 875.5 1167.52 1010.56 1456.56 1010.56 1745.6 1010.56 1886.23 876.45 2034.63 875.56" stroke="rgba(51,121,194,0.58)" stroke-width="2"></path><path d="M365.17 1210.03C623.61 1187.97 730.4 701.57 1244.66 659.66 1758.92 617.75 1868.31 150.34 2124.15 130.46" stroke="rgba(51,121,194,0.58)" stroke-width="2"></path><path d="M828.88 1262.05C1045.52 1200.44 1047.5 652.14 1431.8 592.6 1816.09 533.06 1865.1 288.56 2034.71 279.4" stroke="rgba(51,121,194,0.58)" stroke-width="2"></path><path d="M278.84 1106.5C451.9 1082.59 545.83 681.67 831.79 679.22 1117.75 676.77 1108.26 814.22 1384.74 814.22 1661.21 814.22 1795.4 680.19 1937.69 679.22" stroke="rgba(51,121,194,0.58)" stroke-width="2"></path><path d="M887.71 1208.57C1133.61 1111.09 1166.7 375.27 1517.75 358.55 1868.79 341.83 1980.41 581.93 2147.78 585.35" stroke="rgba(51,121,194,0.58)" stroke-width="2"></path></g><defs><mask id="SvgjsMask1052"><rect width="1920" height="1080" fill="#ffffff"></rect></mask></defs></svg>